# Blender 4.1.1
# www.blender.org
mtllib d20.mtl
o d20
v 0.850651 0.000000 -0.525731
v -0.850651 0.000000 -0.525731
v 0.850651 0.000000 0.525731
v -0.850651 0.000000 0.525731
v 0.525731 0.850651 0.000000
v 0.525731 -0.850651 0.000000
v -0.525731 0.850651 0.000000
v -0.525731 -0.850651 0.000000
v 0.000000 0.525731 -0.850651
v 0.000000 0.525731 0.850651
v 0.000000 -0.525731 -0.850651
v 0.000000 -0.525731 0.850651
vn 0.5774 0.5774 -0.5774
vn 0.5774 -0.5774 -0.5774
vn 0.5774 0.5774 0.5774
vn 0.5774 -0.5774 0.5774
vn -0.5774 0.5774 -0.5774
vn -0.5774 -0.5774 -0.5774
vn -0.5774 0.5774 0.5774
vn -0.5774 -0.5774 0.5774
vn 0.3568 -0.0000 -0.9342
vn -0.3568 -0.0000 -0.9342
vn 0.3568 -0.0000 0.9342
vn -0.3568 -0.0000 0.9342
vn 0.9342 0.3568 -0.0000
vn 0.9342 -0.3568 -0.0000
vn -0.9342 0.3568 -0.0000
vn -0.9342 -0.3568 -0.0000
vn -0.0000 0.9342 -0.3568
vn -0.0000 0.9342 0.3568
vn -0.0000 -0.9342 -0.3568
vn -0.0000 -0.9342 0.3568
vt 0.314717 0.380958
vt 0.250976 0.491361
vt 0.187235 0.380958
vt 0.812963 0.545211
vt 0.749222 0.655614
vt 0.685481 0.545211
vt 0.976529 0.709926
vt 0.912788 0.820328
vt 0.849047 0.709926
vt 0.480166 0.545035
vt 0.416425 0.655438
vt 0.352684 0.545035
vt 0.188531 0.710659
vt 0.316013 0.710659
vt 0.252272 0.821061
vt 0.682995 0.709796
vt 0.810477 0.709796
vt 0.746736 0.820199
vt 0.688349 0.872208
vt 0.815830 0.872208
vt 0.752090 0.982611
vt 0.183330 0.873048
vt 0.310812 0.873048
vt 0.247071 0.983450
vt 0.353872 0.872303
vt 0.481353 0.872303
vt 0.417612 0.982706
vt 0.980049 0.542351
vt 0.916309 0.652754
vt 0.852567 0.542351
vt 0.521116 0.870958
vt 0.648598 0.870958
vt 0.584857 0.981361
vt 0.145795 0.381651
vt 0.082054 0.492054
vt 0.018313 0.381651
vt 0.645877 0.709492
vt 0.582136 0.819894
vt 0.518395 0.709492
vt 0.148251 0.711286
vt 0.084510 0.821688
vt 0.020769 0.711286
vt 0.523908 0.543386
vt 0.651390 0.543386
vt 0.587649 0.653788
vt 0.016950 0.545536
vt 0.144432 0.545536
vt 0.080691 0.655939
vt 0.082761 0.982706
vt 0.019020 0.872304
vt 0.146502 0.872304
vt 0.251757 0.655303
vt 0.188016 0.544901
vt 0.315498 0.544901
vt 0.415723 0.820659
vt 0.351982 0.710256
vt 0.479464 0.710256
vt 0.950736 0.980232
vt 0.840333 0.916491
vt 0.950736 0.852750
s 0
usemtl dice
f 1/1/1 9/2/1 5/3/1
f 1/4/2 6/5/2 11/6/2
f 3/7/3 5/8/3 10/9/3
f 3/10/4 12/11/4 6/12/4
f 2/13/5 7/14/5 9/15/5
f 2/16/6 11/17/6 8/18/6
f 4/19/7 10/20/7 7/21/7
f 4/22/8 8/23/8 12/24/8
f 1/25/9 11/26/9 9/27/9
f 2/28/10 9/29/10 11/30/10
f 3/31/11 10/32/11 12/33/11
f 4/34/12 12/35/12 10/36/12
f 5/37/13 3/38/13 1/39/13
f 6/40/14 1/41/14 3/42/14
f 7/43/15 2/44/15 4/45/15
f 8/46/16 4/47/16 2/48/16
f 9/49/17 7/50/17 5/51/17
f 10/52/18 5/53/18 7/54/18
f 11/55/19 6/56/19 8/57/19
f 12/58/20 8/59/20 6/60/20
