# Blender 4.1.1
# www.blender.org
mtllib d4.mtl
o d4
v 0.000000 1.000000 0.000000
v 0.000000 -1.000000 0.000000
v 0.500000 -0.333333 -0.500000
v 0.500000 -0.333333 0.500000
v -0.500000 -0.333333 -0.500000
v -0.500000 -0.333333 0.500000
vn 0.9363 0.3511 -0.0000
vn -0.0000 0.3511 -0.9363
vn -0.9363 0.3511 -0.0000
vn -0.8000 -0.6000 -0.0000
vn -0.0000 -0.6000 -0.8000
vn 0.8000 -0.6000 -0.0000
vn -0.0000 -0.6000 0.8000
vn -0.0000 0.3511 0.9363
vt 0.475642 0.856008
vt 0.416722 1.023834
vt 0.357788 0.856013
vt 0.141991 0.856008
vt 0.083071 1.023834
vt 0.024137 0.856013
vt 0.308975 0.856008
vt 0.250056 1.023834
vt 0.191121 0.856013
vt 0.448284 0.000152
vt 0.499848 0.252266
vt 0.250152 0.164592
vt 0.198284 0.000152
vt 0.249848 0.252266
vt 0.000152 0.164592
vt 0.698284 0.000152
vt 0.749848 0.252266
vt 0.500152 0.164592
vt 0.948284 0.000152
vt 0.999848 0.252266
vt 0.750152 0.164592
vt 0.972064 0.861008
vt 0.913144 1.028834
vt 0.854210 0.861013
s 0
usemtl dice
f 3/1/1 1/2/1 4/3/1
f 5/4/2 1/5/2 3/6/2
f 6/7/3 1/8/3 5/9/3
f 2/10/4 6/11/4 5/12/4
f 2/13/5 5/14/5 3/15/5
f 2/16/6 3/17/6 4/18/6
f 2/19/7 4/20/7 6/21/7
f 4/22/8 1/23/8 6/24/8
