# Blender 4.1.1
# www.blender.org
mtllib d8.mtl
o d8
v 1.000000 0.000000 0.000000
v -1.000000 0.000000 0.000000
v 0.000000 0.000000 -1.000000
v 0.000000 0.000000 1.000000
v 0.000000 1.000000 0.000000
v 0.000000 -1.000000 0.000000
vn 0.5774 0.5774 -0.5774
vn -0.5774 0.5774 -0.5774
vn -0.5774 0.5774 0.5774
vn 0.5774 0.5774 0.5774
vn 0.5774 -0.5774 -0.5774
vn -0.5774 -0.5774 -0.5774
vn -0.5774 -0.5774 0.5774
vn 0.5774 -0.5774 0.5774
vt 0.750328 0.990578
vt 0.687505 0.881765
vt 0.813151 0.881765
vt 0.083284 0.989118
vt 0.020461 0.880306
vt 0.146107 0.880305
vt 0.249103 0.820486
vt 0.186280 0.711674
vt 0.311926 0.711674
vt 0.412980 0.990875
vt 0.350157 0.882062
vt 0.475803 0.882062
vt 0.913755 0.991121
vt 0.850932 0.882308
vt 0.976578 0.882308
vt 0.080831 0.819646
vt 0.018008 0.710833
vt 0.143654 0.710833
vt 0.585867 0.990875
vt 0.523044 0.882062
vt 0.648690 0.882062
vt 0.248695 0.990339
vt 0.185872 0.881526
vt 0.311518 0.881526
s 0
usemtl dice
f 5/1/1 1/2/1 3/3/1
f 5/4/2 3/5/2 2/6/2
f 5/7/3 2/8/3 4/9/3
f 5/10/4 4/11/4 1/12/4
f 6/13/5 3/14/5 1/15/5
f 6/16/6 2/17/6 3/18/6
f 6/19/7 4/20/7 2/21/7
f 6/22/8 1/23/8 4/24/8
